<?xml version="1.0" encoding="iso-8859-1"?>
<!-- Generator: Adobe Illustrator 16.0.0, SVG Export Plug-In . SVG Version: 6.00 Build 0)  -->
<!DOCTYPE svg PUBLIC "-//W3C//DTD SVG 1.1//EN" "http://www.w3.org/Graphics/SVG/1.1/DTD/svg11.dtd">
<svg xmlns="http://www.w3.org/2000/svg" xmlns:xlink="http://www.w3.org/1999/xlink" version="1.1" id="Capa_1" x="0px" y="0px" width="512px" height="512px" viewBox="0 0 29.791 29.791" style="enable-background:new 0 0 29.791 29.791;" xml:space="preserve">
<g>
	<g>
		<path d="M23.456,9.531c0.722-1.352,2.168-5.081-1.539-8.386c2.429,5.516-3.716,7.132-3.716,7.132l5.35,5.906    c0,0,4.848,0.334,6.24-2.341C28.913,11.104,26.094,10.229,23.456,9.531z" fill="#006DF0"/>
		<path d="M7.876,1.146c-3.707,3.305-2.261,7.032-1.54,8.386C3.696,10.229,0.878,11.104,0,11.844c1.394,2.675,6.24,2.341,6.24,2.341    l5.35-5.906C11.59,8.277,5.447,6.662,7.876,1.146z" fill="#006DF0"/>
		<path d="M8.024,13.625c-1.783,3.379,2.885,7.521,3.569,8.247c0.685,0.727-2.279,1.086-2.26,2.479    c0.012,0.836,0.616,1.684,1.931,2.234c-0.014-0.103-0.04-0.198-0.04-0.304c0-0.206,0.069-0.399,0.125-0.596    c-0.294-0.195-0.477-0.458-0.43-0.726c0.075-0.426,0.683-0.676,1.352-0.556c0.672,0.117,1.157,0.56,1.081,0.985    c-0.022,0.128-0.103,0.232-0.206,0.324c-0.029,0.082-0.08,0.164-0.08,0.246c0,0.66,0.84,1.22,1.832,1.22    c0.992,0,1.833-0.56,1.833-1.22c0-0.082-0.051-0.166-0.08-0.248c-0.104-0.09-0.182-0.194-0.205-0.322    c-0.075-0.426,0.41-0.868,1.076-0.985c0.674-0.12,1.281,0.13,1.356,0.556c0.047,0.268-0.138,0.529-0.433,0.728    c0.057,0.194,0.125,0.39,0.125,0.594c0,0.109-0.025,0.216-0.043,0.321c1.322-0.539,1.93-1.382,1.93-2.253    c0-1.448-3.033-1.699-2.253-2.479c0.78-0.779,5.346-4.865,3.563-8.246l-3.566-5.349h-6.61L8.024,13.625z M9.816,15.591    c-0.474-0.33-0.482-1.46-0.482-1.46s0.679,0.083,1.271,0.52c0.594,0.435,0.802,1.604,0.978,2.179    C11.104,16.044,10.29,15.921,9.816,15.591z M19.188,14.65c0.592-0.437,1.271-0.52,1.271-0.52s-0.009,1.13-0.481,1.46    c-0.475,0.33-1.289,0.453-1.767,1.236C18.385,16.253,18.594,15.085,19.188,14.65z" fill="#006DF0"/>
		<path d="M16.957,25.263c0.137,0.214,0.219,0.449,0.219,0.701c0,0.92-1.019,1.664-2.277,1.664c-1.258,0-2.277-0.744-2.277-1.664    c0-0.252,0.082-0.487,0.22-0.701c-0.233-0.104-0.42-0.225-0.56-0.355c-0.381,0.389-0.61,0.862-0.61,1.377    c0,1.305,1.443,2.361,3.228,2.361c1.786,0,3.229-1.057,3.229-2.361c0-0.515-0.23-0.988-0.611-1.377    C17.375,25.038,17.189,25.161,16.957,25.263z" fill="#006DF0"/>
	</g>
</g>
<g>
</g>
<g>
</g>
<g>
</g>
<g>
</g>
<g>
</g>
<g>
</g>
<g>
</g>
<g>
</g>
<g>
</g>
<g>
</g>
<g>
</g>
<g>
</g>
<g>
</g>
<g>
</g>
<g>
</g>
</svg>
